<svg width="282" height="195" viewBox="0 0 282 195" fill="none" xmlns="http://www.w3.org/2000/svg">
<path d="M20.2878 30.3035C-2.48088 31.6802 -5.56469 63.9817 16.5323 69.6416L35.5 74.5L88.3263 92.716C99.063 96.4183 104.566 108.308 100.44 118.889L82.1823 165.715C75.8352 181.993 91.9468 198.012 108.188 191.572L177.429 164.114C180.111 163.051 182.992 162.58 185.873 162.735L259.895 166.707C284.01 168.001 289.335 133.377 265.946 127.366L213.736 113.946C212.581 113.649 211.455 113.25 210.371 112.752L195.908 106.114C187.468 102.239 182.805 93.0645 184.65 83.9626L196.467 25.6865C199.559 10.4361 184.817 -2.34849 170.158 2.87056L110.671 24.0491C108.899 24.6799 107.047 25.0576 105.17 25.1711L20.2878 30.3035Z" fill="#8B4939" stroke="#8B4939" stroke-width="2"/>
</svg>
